<?xml version="1.0" encoding="UTF-8"?>
<!DOCTYPE svg PUBLIC "-//W3C//DTD SVG 1.2 Tiny//EN"
  "http://www.w3.org/Graphics/SVG/1.2/DTD/svg12.dtd">
<svg xmlns="http://www.w3.org/2000/svg"
     version="1.2"
     baseProfile="tiny"
     width="1024" height="1024"
     viewBox="0 0 1024 1024">
  <path fill="#FFFFFF" d="m201.58671,499.60602 0.2522,-224.75 44.75,-0.2603 44.75,-0.2603 v184.0103 184.01025 h68.8324 68.8323 l8.4177,10.75 c9.6054,12.26687 29.8476,32.99563 40.9176,41.90104 9.2494,7.44082 24.1116,17.67822 33.75,23.24778 3.9875,2.30417 7.25,4.61955 7.25,5.14529 0,0.60385 -58.5589,0.95589 -159.0022,0.95589 h-159.0022 z m395.7522,224.27796 c-0.825,-0.19128 -4.875,-0.8741 -9,-1.51738 -41.9335,-6.53935 -83.1178,-28.62638 -115.0797,-61.71694 -19.0745,-19.74815 -30.7736,-36.44732 -42.4195,-60.54918 -15.7764,-32.65016 -22.7536,-63.98366 -22.7133,-102.00166 0.026,-24.15 1.7225,-37.3548 7.7908,-60.6278 10.0753,-38.6403 27.9601,-70.7927 55.179,-99.1978 44.1999,-46.1261 104.0626,-70.9172 171.2427,-70.9172 62.9653,0 116.3333,21.8746 163.2923,66.9308 5.406,5.187 10.6985,10.6519 11.7611,12.1441 l1.932,2.7133 -25.7427,24.0101 c-14.1585,13.2055 -27.5036,25.8348 -29.6559,28.0651 l-3.9131,4.0551 -11.6284,-11.2093 c-23.2056,-22.3691 -46.8086,-34.8444 -77.3507,-40.8836 -14.2496,-2.8176 -40.2897,-3.081 -54.1946,-0.5483 -11.2905,2.0565 -24.744,5.9338 -34.0904,9.8247 -59.6622,24.8374 -93.09,99.6523 -77.2521,172.898 12.3143,56.95013 50.2249,96.63218 98.478,103.0794 11.2467,1.5027 27.5002,0.64211 37.6483,-1.99341 28.7025,-7.45422 57.9613,-31.50432 90.0714,-74.03669 4.7547,-6.2979 8.6448,-11.8104 8.6448,-12.25 0,-0.4396 -19.8052,-0.7993 -44.0116,-0.7993 h-44.0116 l0.2616,-39.25 0.2616,-39.25 96.25,-0.255 96.25,-0.255 v127.00495 c0,107.64437 -0.2115,127.005 -1.3874,127.005 -0.763,0 -6.492,-5.5125 -12.7309,-12.25 -13.1863,-14.23989 -37.523,-40.30476 -46.5941,-49.90277 l-6.2876,-6.65277 -0.032,-10.34723 -0.032,-10.34723 -2.2183,2.99078 c-12.3049,16.58963 -32.221,37.32851 -45.498,47.37759 -23.5998,17.86211 -49.0082,29.67772 -76.9861,35.80063 -10.155,2.22242 -14.6277,2.61101 -33.2342,2.88741 -11.825,0.17566 -22.175,0.16288 -23,-0.0284 z"/>
</svg>


